<svg xmlns="http://www.w3.org/2000/svg" xmlns:xlink="http://www.w3.org/1999/xlink" version="1.1" width="512" height="512" x="0" y="0" viewBox="0 0 100 100" style="enable-background:new 0 0 512 512" xml:space="preserve" class="">
  <g>
    <path d="M90.11 51.2H74.62c-3.99 0-7.29 3.3-7.29 7.29v15.48c0 4 3.3 7.3 7.29 7.3h15.59c3.99 0 7.29-3.3 7.29-7.3V58.49c-.1-3.99-3.4-7.29-7.39-7.29zm-.8 16.08-4.4 4.4c-.2.3-.6.4-.9.4s-.6-.1-.89-.4c-.5-.5-.5-1.4 0-1.9l2.19-2.2h-9.09c-.7 0-1.3-.6-1.3-1.3s.6-1.3 1.3-1.3h9.09l-2.19-2.19c-.5-.5-.5-1.4 0-1.9.49-.5 1.39-.5 1.89 0l4.3 4.49c.5.5.5 1.4 0 1.9zM57.74 51.2H42.16c-4 0-7.29 3.3-7.29 7.29v15.48c0 4 3.29 7.3 7.29 7.3h15.58c4 0 7.29-3.3 7.29-7.3V58.49c-.1-3.99-3.29-7.29-7.29-7.29zm-2.5 17.58-4.39 4.4c-.5.5-1.4.5-1.9 0l-4.39-4.4c-.3-.2-.4-.6-.4-.9 0-.3.1-.6.4-.9.5-.5 1.39-.5 1.89 0l2.2 2.2v-9.09c0-.7.6-1.3 1.3-1.3.7 0 1.3.6 1.3 1.3v9.09l2.2-2.2c.5-.5 1.39-.5 1.79-.1.5.5.5 1.4 0 1.9zM57.74 18.73H42.16c-4 0-7.29 3.3-7.29 7.3v15.58c0 3.99 3.29 7.29 7.29 7.29h15.58c4 0 7.29-3.3 7.29-7.29V26.03c-.1-4-3.29-7.3-7.29-7.3zm-2.4 14.29c-.5.5-1.39.5-1.89 0l-2.2-2.2v9.09c0 .7-.6 1.3-1.3 1.3-.7 0-1.3-.6-1.3-1.3v-9.09l-2.2 2.2c-.5.5-1.39.5-1.89 0s-.5-1.4 0-1.9l4.39-4.4c.5-.49 1.4-.49 1.9 0l4.49 4.5c.3.2.4.6.4.9s-.1.6-.4.9zM25.28 51.2H9.79c-3.99 0-7.29 3.3-7.29 7.29v15.48c0 4 3.3 7.3 7.29 7.3h15.59c3.99 0 7.29-3.3 7.29-7.3V58.49c-.1-3.99-3.4-7.29-7.39-7.29zm-1.5 16.18h-9.09l2.19 2.2c.5.5.5 1.4 0 1.9-.49.5-1.39.5-1.89 0l-4.4-4.4c-.5-.5-.5-1.4 0-1.9l4.4-4.39c.2-.3.6-.4.9-.4.3 0 .6.1.89.4.5.5.5 1.4 0 1.9l-2.19 2.19h9.09c.7 0 1.4.5 1.4 1.2s-.6 1.3-1.3 1.3z" fill="#000000" opacity="1" dataOriginal="#000000" class=""/>
  </g>
</svg>