<svg xmlns="http://www.w3.org/2000/svg" xmlns:xlink="http://www.w3.org/1999/xlink" version="1.1" width="512" height="512" x="0" y="0" viewBox="0 0 512 512" style="enable-background:new 0 0 512 512" xml:space="preserve" class="">
  <g>
    <path d="M331.37 254.28c-7.69 0-14.35 4.72-17.6 11.57h35.22c-3.25-6.88-9.92-11.57-17.62-11.57z" fill="#000000" opacity="1" data-original="#000000" class=""/>
    <path d="M421.62 11H90.39C46.54 11 11 46.54 11 90.38v331.24C11 465.46 46.54 501 90.38 501h331.24c43.84 0 79.38-35.54 79.38-79.38V90.38C501 46.54 465.46 11 421.62 11zM134.37 248c4.42 0 8 3.58 8 8s-3.58 8-8 8H96.86v32.23h37.51c4.42 0 8 3.58 8 8s-3.58 8-8 8H92c-6.14 0-11.14-5-11.14-11.14v-90.18c0-6.14 5-11.14 11.14-11.14h42.37c4.42 0 8 3.58 8 8s-3.58 8-8 8H96.86V248zm78.18 56.23c0 4.42-3.58 8-8 8s-8-3.58-8-8v-42.19c0-5.05-4.11-9.17-9.17-9.17s-9.17 4.11-9.17 9.17v42.19c0 4.42-3.58 8-8 8s-8-3.58-8-8v-59.36c0-4.42 3.58-8 8-8 2.36 0 4.47 1.03 5.94 2.65 3.38-1.69 7.19-2.65 11.23-2.65 13.88 0 25.17 11.29 25.17 25.17zm56.21 8h-9.06c-10.31 0-18.7-9.57-18.7-21.33v-32.81h-8.67c-4.42 0-8-3.58-8-8s3.58-8 8-8H241V229.6c0-4.42 3.58-8 8-8s8 3.58 8 8v12.49h8.67c4.42 0 8 3.58 8 8s-3.58 8-8 8H257v32.81c0 3.25 1.77 5.32 2.7 5.32h9.06c.93 0 2.7-2.07 2.7-5.32 0-4.42 3.58-8 8-8s8 3.58 8 8c0 11.76-8.39 21.33-18.7 21.33zm90.66-30.39h-.64c-.08 0-.16.01-.24.01h-45.87c2.61 8.34 10 14.38 18.71 14.38 4.9 0 9.61-1.93 13.25-5.44 3.18-3.07 8.24-2.97 11.31.21s2.97 8.25-.21 11.31c-6.64 6.4-15.29 9.92-24.35 9.92-19.7 0-35.72-16.59-35.72-36.98s16.02-36.98 35.72-36.98 34.77 15.46 35.68 35.2c.2 4.41-3.21 8.16-7.63 8.36zm63.72-13.18c-4.42 0-8-3.58-8-8s-3.66-7.79-8.15-7.79-8.15 3.5-8.15 7.79v43.57c0 4.42-3.58 8-8 8s-8-3.58-8-8v-59.36c0-4.42 3.58-8 8-8 2.22 0 4.22.9 5.67 2.36 3.17-1.51 6.73-2.36 10.48-2.36 13.32 0 24.15 10.67 24.15 23.79 0 4.42-3.58 8-8 8z" fill="#000000" opacity="1" data-original="#000000" class=""/>
  </g>
</svg>