<svg xmlns="http://www.w3.org/2000/svg" xmlns:xlink="http://www.w3.org/1999/xlink" version="1.1" width="512" height="512" x="0" y="0" viewBox="0 0 512 512" style="enable-background:new 0 0 512 512" xml:space="preserve" class="">
  <g>
    <path d="M480.636 11.114H31.364C14.071 11.114 0 25.186 0 42.49v427.031c0 17.293 14.071 31.364 31.364 31.364h449.271c17.293 0 31.364-14.071 31.364-31.364V42.49c.001-17.304-14.07-31.376-31.363-31.376zM347.78 413.949c-1.553.38-3.107.564-4.637.564-8.664 0-16.534-5.868-18.697-14.647l-21.469-86.867h-93.955l-21.469 86.867c-2.554 10.332-13.001 16.637-23.333 14.083s-16.637-13.001-14.083-23.333l68.815-278.401c2.129-8.595 9.849-14.647 18.708-14.647h36.68c8.859 0 16.58 6.052 18.708 14.647l68.815 278.401c2.554 10.332-3.751 20.779-14.083 23.333zm-88.535-277.838 34.195 138.344h-74.879l34.195-138.344z" fill="#000000" opacity="1" data-original="#000000" class=""/>
  </g>
</svg>